PathFileType	4	(X/Y/Z)	TVC_39_BWA_06_walk_RCNL2025.trc
DataRate	CameraRate	NumFrames	NumMarkers	Units	OrigDataRate	OrigDataStartFrame	OrigNumFrames
100	100	11	27	mm	100	140	1118
Frame#	Time	R_Shoulder			L_Shoulder			C7			J_Notch			R_Elbow			L_Elbow			R_Wrist			L_Wrist			R_Asis			L_Asis			R_Psis			L_Psis			Sacral			Thoracic			Sternum			R_Thigh_Lateral			R_Knee_Lateral			R_Shank_Lateral			R_Ankle_Lateral			R_Heel			R_Toe			L_Thigh_Lateral			L_Knee_Lateral			L_Shank_Lateral			L_Ankle_Lateral			L_Heel			L_Toe		
		X1	Y1	Z1	X2	Y2	Z2	X3	Y3	Z3	X4	Y4	Z4	X5	Y5	Z5	X6	Y6	Z6	X7	Y7	Z7	X8	Y8	Z8	X9	Y9	Z9	X10	Y10	Z10	X11	Y11	Z11	X12	Y12	Z12	X13	Y13	Z13	X14	Y14	Z14	X15	Y15	Z15	X16	Y16	Z16	X17	Y17	Z17	X18	Y18	Z18	X19	Y19	Z19	X20	Y20	Z20	X21	Y21	Z21	X22	Y22	Z22	X23	Y23	Z23	X24	Y24	Z24	X25	Y25	Z25	X26	Y26	Z26	X27	Y27	Z27
140	1.39000000	-1244.540649	1485.498413	388.703369	-1202.993164	1486.656738	24.156002	-1263.006592	1546.131348	195.286713	-1111.406738	1422.802124	212.630203	-1234.682983	1170.907837	518.790710	-1257.947510	1174.200073	-92.676895	-1129.825867	938.024963	493.092834	-1173.443420	926.398987	-68.239874	-1180.646240	960.148071	378.657532	-1143.566528	931.840393	84.447037	-1367.244385	968.331604	264.117493	-1356.374268	956.040466	159.038315	-1361.809326	962.186035	211.577904	-1356.338745	1219.648438	187.776337	-1071.886719	1262.001221	231.902084	-1199.012451	774.000610	478.394257	-1134.048828	512.038574	434.664520	-1163.322266	329.439056	507.691833	-1111.341675	99.398109	438.187195	-1146.593994	76.012421	383.471771	-961.686462	79.402031	444.792633	-1198.737183	677.221375	24.961597	-1195.455078	458.669189	120.216995	-1251.371582	320.615234	72.345573	-1300.338379	67.844215	181.112976	-1344.275024	56.678768	239.725906	-1159.861572	38.676186	171.414856
141	1.40000000	-1242.386841	1485.084351	388.801697	-1201.085327	1486.189819	24.191584	-1261.018433	1545.706665	195.352310	-1109.400879	1422.377808	212.605637	-1232.531250	1170.464478	518.868835	-1256.161743	1173.645264	-92.398468	-1127.828613	937.535278	492.980942	-1172.023071	925.713257	-67.826117	-1178.097534	959.510742	378.399963	-1141.492310	931.718811	84.047348	-1364.856934	967.618958	264.100616	-1353.996338	955.426880	159.088562	-1359.426636	961.522919	211.594589	-1354.377441	1219.203979	187.943741	-1069.855469	1261.616455	231.804672	-1195.921997	773.424683	478.148682	-1129.887817	511.824036	433.613129	-1158.130249	328.929138	506.249237	-1104.308472	99.376671	436.510651	-1139.554321	76.188705	381.619598	-954.608765	79.338852	442.910889	-1196.914551	676.939209	24.629662	-1194.108643	458.335022	120.054718	-1250.434814	320.431091	72.349236	-1300.295288	67.894981	181.151321	-1344.146973	56.758190	239.786774	-1159.814575	38.658798	171.393539
142	1.41000000	-1240.263184	1484.643311	388.957550	-1199.234131	1485.727051	24.279484	-1259.070312	1545.264160	195.482956	-1107.421509	1421.957520	212.625610	-1230.323608	1169.977051	518.986938	-1254.394897	1173.102905	-92.103325	-1125.719055	937.043365	492.851395	-1170.592407	925.045319	-67.383837	-1175.428223	958.873596	378.163666	-1139.367188	931.606567	83.663162	-1362.384888	966.857178	264.144836	-1351.565796	954.784546	159.189789	-1356.975342	960.820862	211.667313	-1352.403442	1218.723022	188.174118	-1067.820557	1261.242798	231.731903	-1192.645630	772.844849	477.857910	-1125.688232	511.528717	432.563690	-1153.147339	328.376038	504.774841	-1097.978027	99.262413	434.718231	-1133.277222	76.360077	379.666351	-948.283386	78.924278	440.884247	-1195.045410	676.673828	24.319693	-1192.771240	458.005310	119.898064	-1249.525269	320.253174	72.349159	-1300.254395	67.950073	181.184097	-1344.022339	56.845230	239.844635	-1159.766846	38.639076	171.371017
143	1.42000000	-1238.169678	1484.174927	389.171844	-1197.443848	1485.267700	24.419819	-1257.163452	1544.803101	195.679611	-1105.468628	1421.542236	212.689926	-1228.060181	1169.444336	519.143677	-1252.645630	1172.570435	-91.791046	-1123.498413	936.546722	492.705963	-1169.145264	924.395020	-66.914787	-1172.636108	958.237061	377.948273	-1137.188965	931.502625	83.295677	-1359.825684	966.047424	264.251190	-1349.083130	954.115540	159.341339	-1354.454407	960.081482	211.796265	-1350.414429	1218.204102	188.470993	-1065.780884	1260.881226	231.683121	-1189.209717	772.257568	477.521027	-1121.465576	511.145447	431.517487	-1148.360840	327.771088	503.284882	-1092.342285	99.038956	432.820862	-1127.752930	76.500259	377.633606	-942.695007	78.165161	438.710541	-1193.126221	676.424011	24.034437	-1191.438232	457.678192	119.748520	-1248.641968	320.082031	72.343727	-1300.213745	68.009155	181.211884	-1343.901855	56.941189	239.899139	-1159.718506	38.617496	171.347412
144	1.43000000	-1236.104980	1483.678467	389.445526	-1195.718262	1484.810791	24.612862	-1255.297852	1544.323242	195.943192	-1103.541748	1421.132568	212.798325	-1225.741699	1168.865967	519.337524	-1250.912598	1172.044678	-91.460075	-1121.168579	936.043152	492.546234	-1167.675659	923.761688	-66.420965	-1169.720337	957.601135	377.753235	-1134.955444	931.405640	82.946083	-1357.177612	965.191711	264.420410	-1346.548584	953.421448	159.542725	-1351.863098	959.306580	211.981567	-1348.408325	1217.646240	188.837814	-1063.734741	1260.532837	231.657822	-1185.638794	771.657288	477.138580	-1117.238892	510.667328	430.474823	-1143.762207	327.106781	501.792877	-1087.385254	98.693741	430.829712	-1122.962280	76.585175	375.541931	-937.820312	77.076836	436.390381	-1191.153564	676.187256	23.775732	-1190.103760	457.351471	119.607742	-1247.781982	319.918152	72.332321	-1300.170898	68.071861	181.235992	-1343.785156	57.046398	239.950485	-1159.670532	38.594704	171.322784
145	1.44000000	-1234.066895	1483.153931	389.779541	-1194.060791	1484.354736	24.859022	-1253.473267	1543.824097	196.274597	-1101.640015	1420.729126	212.950500	-1223.369141	1168.241943	519.566956	-1249.194824	1171.521729	-91.107796	-1118.731689	935.530640	492.373993	-1166.178040	923.144257	-65.904491	-1166.681274	956.965881	377.577698	-1132.664917	931.313782	82.615646	-1354.439575	964.292786	264.652710	-1343.961914	952.703552	159.793671	-1349.200745	958.498169	212.223190	-1346.382446	1217.048828	189.277771	-1061.680298	1260.198120	231.655685	-1181.954224	771.036377	476.711975	-1113.029785	510.088013	429.434692	-1139.348877	326.376434	500.308807	-1083.083252	98.218033	428.756134	-1118.876587	76.592766	373.409973	-933.628845	75.683060	433.928650	-1189.123413	675.959656	23.544714	-1188.760986	457.022583	119.477318	-1246.940918	319.762177	72.315285	-1300.123657	68.137726	181.258331	-1343.671631	57.160400	239.999527	-1159.623291	38.571423	171.297134
146	1.45000000	-1232.052124	1482.600952	390.174713	-1192.473999	1483.898193	25.158798	-1251.688110	1543.305908	196.674576	-1099.761841	1420.332397	213.146027	-1220.943481	1167.572876	519.830383	-1247.491455	1170.997925	-90.730629	-1116.190369	935.007690	492.190872	-1164.646912	922.541473	-65.367494	-1163.520630	956.330994	377.420776	-1130.316162	931.225159	82.305710	-1351.611450	963.354065	264.947998	-1341.322144	951.963013	160.093948	-1346.466797	957.658539	212.520973	-1344.334473	1216.411743	189.793533	-1059.615723	1259.877930	231.676559	-1178.171875	770.385193	476.243408	-1108.862427	509.402039	428.394867	-1135.124756	325.573669	498.838898	-1079.405884	97.606758	426.611572	-1115.459595	76.502808	371.253632	-930.083374	74.015785	431.335724	-1187.031250	675.735779	23.342192	-1187.403198	456.689117	119.358688	-1246.113892	319.614502	72.293793	-1300.069946	68.206200	181.281158	-1343.559937	57.282158	240.047577	-1159.577637	38.548431	171.270401
147	1.46000000	-1230.056641	1482.020020	390.631805	-1190.959351	1483.439697	25.512751	-1249.940552	1542.768677	197.143738	-1097.905151	1419.943115	213.384369	-1218.465942	1166.859863	520.126099	-1245.802002	1170.468872	-90.324181	-1113.547607	934.472931	491.998474	-1163.077454	921.951721	-64.811982	-1160.241333	955.696411	377.281555	-1127.908447	931.137512	82.017677	-1348.693726	962.379822	265.305603	-1338.628418	951.200806	160.443329	-1343.661072	956.790314	212.874466	-1342.261719	1215.735352	190.387222	-1057.538696	1259.572876	231.720428	-1174.301758	769.692200	475.735352	-1104.762451	508.605225	427.351959	-1131.099487	324.691956	497.385529	-1076.316162	96.858276	424.407745	-1112.666992	76.296623	369.085663	-927.140625	72.114517	428.628693	-1184.872681	675.509644	23.168999	-1186.023560	456.348877	119.253151	-1245.295410	319.475128	72.269699	-1300.008301	68.276596	181.306824	-1343.449219	57.410233	240.096069	-1159.534424	38.526474	171.242569
148	1.47000000	-1228.075439	1481.411377	391.151367	-1189.517822	1482.977905	25.921450	-1248.227661	1542.213257	197.682526	-1096.067505	1419.561646	213.664948	-1215.937378	1166.104126	520.452820	-1244.125854	1169.930542	-89.883369	-1110.806824	933.925446	491.798370	-1161.465271	921.373505	-64.239727	-1156.847656	955.062195	377.159302	-1125.441284	931.048645	81.753082	-1345.687622	961.375183	265.724396	-1335.879761	950.418091	160.841415	-1340.783691	955.896637	213.282906	-1340.161255	1215.020508	191.060135	-1055.446777	1259.283447	231.787399	-1170.347656	768.944519	475.190399	-1100.755005	507.695221	426.301758	-1127.287354	323.724609	495.947571	-1073.771729	95.974182	422.156677	-1110.447388	75.956924	366.915466	-924.751953	70.025352	425.831970	-1182.643677	675.275085	23.026012	-1184.616089	456.000000	119.161942	-1244.479614	319.343353	72.245392	-1299.937866	68.347984	181.337357	-1343.338745	57.542938	240.146332	-1159.494507	38.506222	171.213669
149	1.48000000	-1226.103271	1480.776001	391.733734	-1188.148926	1482.511841	26.385437	-1246.546021	1541.640503	198.291153	-1094.245605	1419.188843	213.987106	-1213.358398	1165.307861	520.809143	-1242.462769	1169.379272	-89.402641	-1107.971191	933.364563	491.592133	-1159.806519	920.805206	-63.652111	-1153.344727	954.428589	377.053467	-1122.915161	930.956177	81.513550	-1342.595825	960.345886	266.202728	-1333.075195	949.616394	161.287537	-1337.835510	954.981140	213.745132	-1338.030640	1214.268799	191.812714	-1053.337402	1259.010132	231.877686	-1166.308960	768.128662	474.611359	-1096.864746	506.671844	425.239685	-1123.705078	322.665283	494.521240	-1071.724854	94.959152	419.871155	-1108.743408	75.467957	364.749207	-922.864014	67.799652	422.977539	-1180.341919	675.026367	22.914005	-1183.175903	455.641174	119.086227	-1243.660645	319.217865	72.223610	-1299.858398	68.419106	181.374313	-1343.228516	57.678432	240.199265	-1159.458618	38.488247	171.183731
150	1.49000000	-1224.134033	1480.114990	392.378967	-1186.851196	1482.041138	26.905174	-1244.891724	1541.051636	198.969559	-1092.436157	1418.825195	214.350143	-1210.729370	1164.473145	521.194092	-1240.812378	1168.811890	-88.876122	-1105.044678	932.789886	491.381287	-1158.097839	920.245636	-63.050027	-1149.739380	953.796387	376.963806	-1120.330566	930.857971	81.300880	-1339.421143	959.298462	266.738403	-1330.214111	948.797729	161.780609	-1334.817627	954.048096	214.259506	-1335.867065	1213.482300	192.644455	-1051.208252	1258.753296	231.991638	-1162.182495	767.231812	474.001434	-1093.113037	505.537842	424.161346	-1120.368896	321.509064	493.100769	-1070.123779	93.820801	417.564850	-1107.492065	74.816322	362.590881	-921.419373	65.492332	420.104553	-1177.966431	674.758728	22.833332	-1181.698730	455.271454	119.027222	-1242.832886	319.096771	72.207283	-1299.770264	68.488342	181.418655	-1343.119507	57.814785	240.255142	-1159.427734	38.473038	171.152771
